<?xml version="1.0" encoding="UTF-8"?>
<svg id="katman_1" xmlns="http://www.w3.org/2000/svg" version="1.1" viewBox="0 0 1190.55 324.91">
  <!-- Generator: Adobe Illustrator 30.1.0, SVG Export Plug-In . SVG Version: 2.1.1 Build 136)  -->
  <defs>
    <style>
      .st0 {
        fill: #1d1d1b;
      }
    </style>
  </defs>
  <path class="st0" d="M436.9,152.85c-10.1-.02-26.55.18-49.33.6l-109.94,2.62c-56.82,1.02-93.13,1.61-108.96,1.76-10.71.14-140.54,3.75-145.16-6.93-2.79-6.44,65.02-12.82,81.56-13.36,36.95-1.21,79.81.58,90.51,13.79-9.65-17.72-55.03-25.18-95.48-23.75-10.07.35-98.82,4.4-88.25,26.3,2.96,4.11,10.18,6.96,21.66,8.55,13.94,2.4,32.38,3.59,55.33,3.57,33.69.22,82.97-.1,147.86-.96,10.03.23,78.04-1.56,204.02-5.34,145.17-1.94,136.26-6.12-3.82-6.87"/>
  <path class="st0" d="M352.77,96.06c21.43-30.25,38.24-57.66,35.39-66.2-.55-1.73-1.53-2.42-2.92-2.08-4.59,1.43-18.18,10.33-40.75,26.72l-26.71,21.53-86.63,72.9C104.08,244.85,10.97,327.95,101.04,261.92c77.22-56.61,162.48-123.09,241.83-189.31,35.4-29.9,28.36-21.96,15.57-5.02-65.48,86.77-155.48,221.01-87.56,131.19,13.22-17.49,57.72-68.6,81.88-102.72"/>
  <path class="st0" d="M485.06,44.41c-49.29,46.87-208.91,215.66-237.43,247.07-80.67,88.82,202-193.33,242.31-236.55-25.12,41.82-120.67,217.74-92.3,172.45,6.18-9.86,51.97-76.04,67.39-104.93,13.61-24.88,26.42-47.86,38.43-68.94,17.92-34.85,2.29-28.78-18.4-9.1"/>
  <path class="st0" d="M510.01,248.42l1.09-2.04c27.16-51.49,52.5-101.21,60.95-119.96,1.66-3.56,43.47-86,16.95-45.96-4.23,6.16-11.36,18.53-21.39,37.11-3.32,6.12-58.61,112.46-58.16,121.82.07,1.52.33,2.76.78,3.71l.3,2.69c.16.71-.02,1.59-.53,2.63"/>
  <path class="st0" d="M853.85,204.79l-.04-.11-47.83-4.1c-8.87-.94-18.05-2.17-27.53-3.71-22.12-3.61-45.97-8.78-71.56-15.51-46.37-10.85-78.33-24.11-95.9-39.79l-11.96-12.54c21.53.5,59.27-.32,90.97-10.84,41.86-13.89,70.93-40.98,15.91-67.57-31.01-12.74-63.54-19.34-97.6-19.78-20.5-.08-41.96,2.8-64.37,8.66-12.58,2.43-17.93,6.09-16.04,10.97.53,1.82,1.93,3.19,4.22,4.13l17.47,4.02c3.37.95,6.48,2.09,9.32,3.41,23.06,11.06,16.91,21.17,18.16,34.84,17.68-26.38-6.12-43.24-30.07-48.62,52.33-13.54,104.67-9.48,157.02,12.19,32.11,15.99,23.97,34.16-6.01,46.2-17.81,7.07-40.03,11.1-66.66,12.09-16.85.62-31.41.39-43.69-.68-5.47-4.65-14.14-6.74-26.02-6.28-5.52,1.3-6.78,4.35-3.79,9.15,2.89,3.22,11.01,5.52,24.36,6.91l24.46,24.59c4.28,3.65,10.58,7.74,18.89,12.26,14.83,7.91,30.27,13.98,46.32,18.22,31.94,9,65.47,15.85,100.58,20.54,39.66,4.33,66.8,4.78,81.4,1.35"/>
  <path class="st0" d="M795.54,114.04v-.15c-.09-.58-.21-.92-.38-1.02-.58-.28-1.25-.36-2.02-.23-2.56.65-9.33,2.7-20.3,6.14-1,.3-2.75.67-5.26,1.1-1.03-3.26-2.68-5.16-4.94-5.72-.97-.41-2.57-.55-4.79-.42-2.92.26-4.73.65-5.42,1.17-3.73,3.05-4.69,6.37-2.89,9.96-1.52.81-4.38,3.56-8.57,8.25-2.11,2.5-3.99,5.21-5.65,8.12-2.91,5.93-4.25,10.21-4.01,12.84.02,1.89.74,3.73,2.16,5.51,1.38,1.68,2.95,2.75,4.72,3.19,3.75.9,8.07-.1,12.95-2.98,4.96-3.3,8.73-7.51,11.29-12.65,3.96-7.91,6-14.72,6.12-20.42,2.72-.62,6.32-2.03,10.8-4.22l15.01-7.16c.85-.37,1.25-.81,1.19-1.32M760.24,128.36l-.02.21c-.13,2.41-1.41,6.45-3.85,12.12-1.51,3.47-3.47,6.57-5.88,9.28-2.41,2.62-5.46,4.41-9.14,5.35-.76.09-1.21.12-1.33.08-.25-.04-.5-.19-.75-.46l-1.09-1.26c-.07-.25-.07-.76,0-1.51.09-1.6.6-3.88,1.53-6.83.18-.81.86-2.44,2.03-4.88,2.21-3.92,5.08-7.84,8.59-11.74l1.46-1.47c1.9,1.14,4.71,1.51,8.44,1.12Z"/>
  <path class="st0" d="M805.51,112.23c-1.55-1.77-3.62-2.83-6.2-3.21-2.58-.27-4.71.29-6.41,1.69-1.97,1.95-2.71,3.78-2.22,5.49-2.3,1.4-4.59,3.53-6.86,6.37-.74.74-3.28,4.93-7.61,12.56-2.91,5.38-4.48,8.64-4.72,9.77-.77,2.42-1.14,5.01-1.12,7.78.02,1.82.61,3.44,1.76,4.87,1.41,1.61,3.05,2.52,4.94,2.73,3.45.29,7.4-1.48,11.84-5.31,5.35-4.87,9.34-10.33,11.99-16.37,2.92-6.11,5.06-11.08,6.42-14.91.83-2.6.98-5,.44-7.19l2.13-.8c1.21-.31,16.71-9.86,16.67-10.95-.01-.32-9.5,4.55-15.96,6.89-2.18.79-4.11.35-5.09.59M798.88,119.21v.03c-.02.57-.2,1.27-.52,2.1-.42,1-1.17,2.66-2.25,4.98-3,6.41-5.18,10.69-6.55,12.83-.36.78-2.1,2.96-5.22,6.53-1.87,2.01-3.42,3.38-4.66,4.11-.03-1.74.68-4.22,2.12-7.46,2.01-4.54,4.52-9.56,7.52-15.07.93-1.51,1.83-2.76,2.7-3.76,1.27-1.5,2.67-2.89,4.19-4.16.86.02,1.74-.03,2.66-.15Z"/>
  <path class="st0" d="M888.73,14.12l-.09-.97c-1.21-3.39-3.22-4.17-6.02-2.34-3.2,5.31-6.94,11.7-11.24,19.19l-22.08,38.95c-2.08,3.46-4.79,7.59-8.15,12.41-4.24,6.21-7.88,10.94-10.92,14.19-10.93,11.14-17.44,17.45-19.52,18.95,10.72-5.38,18.18-10.22,22.38-14.55,4.53-3.95,11.11-12.4,19.73-25.35-21.71,50.33-34.39,81.42-38.04,93.26-3.71,11.15-6.69,21.5-8.94,31.05-1.14,4.81-2.12,9.39-2.91,13.74-1.36,7.61-2.03,12.8-2.01,15.56-.24-.43-.52.41-.85,2.5.12,1.25.46,2.09,1.02,2.52,1.31.35,2.28.09,2.9-.78,4.43-21.05,11.01-42.53,19.74-64.45,2.32-6.38,9.46-23.75,21.4-52.12,24.6-58.47,38.91-91.44,42.92-98.89.42-.88.64-1.84.67-2.87"/>
  <path class="st0" d="M1170.78,65.56c1.83-.49,5.64-.29,3.24,3.34-2.4,3.63-9.34,6.23-18.86,6.85-9.52.61-18.19.65-33.99.58-15.8-.07-40.41.02-61.34.3-20.93.28-36.05.5-59.62.79-23.57.29-56.42.21-80.37.28-23.95.08-39.22.31-59.94.62-20.72.32-44.32.28-57.35.46-13.03.18-19.11.5-26.49-2.83-7.38-3.33-1.94-8.03,3.33-9.28,5.28-1.25,15.67-1.73,26.92-1.43,11.25.31,19.95.53,32.95.32,13-.21,26.95-.91,31.16-.5,4.22.41,4.36,2.7,1.59,2.82,0,0-5.4,1.43-16.47,2.62s-28.95,2.42-41.37,2.74c-12.42.33-18.51.55-25.04,1.3-6.53.75-11.15,1.94-12.57-1.37-1.42-3.31,6.56-3.26,17.51-3.7,10.95-.44,21.3-.47,39.74-.51,18.44-.04,46.43-.71,70.09-.73,23.65-.01,39.7-.1,64.14.1,24.45.2,55.51-.07,77.38.05,21.87.12,35.24.4,53.34.83,18.1.42,38.2,1.04,49.19,1.1,10.99.05,15.53-.11,19.58-1.17,4.05-1.07,7.02-3.87,6.11-3.71-2.71.64-1.06-.37-2.87.11"/>
  <path class="st0" d="M885.26,130.65l-14.81-9.28c-2.15-1.93-3.28-3.17-3.42-3.75-.23-1.14.02-1.97.75-2.49,2.12-1.95,4.11-3.43,5.97-4.46,6.51-3.49,11.11-5.03,13.79-4.62-1.47-2.66-5.82-2.58-13.07.22-6.05,2.39-9.8,4.52-11.25,6.37-2,2.21-2.6,4.64-1.79,7.29.9,2.37,2.36,4.44,4.36,6.2.39.36,1.55,1.21,3.5,2.54l11.29,7.39,2.56,1.9c-3.37.24-6.05.6-8.05,1.09-.14-.1-3.23.89-9.26,2.98-6.88,2.43-13.45,5.42-19.71,8.98-13.17,6.94-19.61,13.02-19.34,18.26,1.09,7.37,9.7,5.72,22.42,1.99,11.58-3.4,40.44-13.19,43.6-26.1,1.11-4.54-.13-9.26-7.55-14.5M845.16,162.76c4.94-3.24,10.34-6.61,16.19-10.11l6.35-3.59c8.21-4.41,12.28-6.63,12.22-6.67,2.4-1.4,3.92-2.48,4.57-3.23,2.76,2.44-3.4,10.02-9.28,13.6-10.91,6.62-27.35,9.39-30.04,10.01Z"/>
  <path class="st0" d="M400.98,263.52c-.62,0-1.14-.21-1.57-.64-.43-.43-.64-.95-.64-1.57s.22-1.14.64-1.57.95-.64,1.57-.64,1.14.21,1.57.64c.45.45.68.98.68,1.57s-.21,1.14-.64,1.57c-.43.43-.95.64-1.57.64h-.04ZM399.21,266.86h3.61v25.74h-3.61v-25.74Z"/>
  <polygon class="st0" points="423.9 272.76 423.9 292.6 420.24 292.6 420.24 266.86 424.18 266.86 438.44 286.82 438.44 266.86 442.05 266.86 442.05 292.6 438.12 292.6 423.9 272.76"/>
  <path class="st0" d="M473.6,272.88c-.59-.86-1.47-1.58-2.65-2.17-1.15-.59-2.4-.88-3.73-.88-1.5,0-2.72.32-3.65.96-.91.64-1.37,1.49-1.37,2.53,0,.88.36,1.63,1.09,2.25.75.64,1.65,1.11,2.69,1.41.86.24,2.02.63,3.49,1.17,1.26.43,2.42.91,3.49,1.44,1.07.51,1.97,1.29,2.69,2.33.72,1.04,1.08,2.26,1.08,3.65,0,2.06-.72,3.77-2.17,5.14-1.47,1.39-3.41,2.18-5.82,2.37l-2.69,6.83-2.97-1.21,3.05-5.58c-3.86-.29-6.71-1.74-8.55-4.34l2.61-2.45c1.71,2.28,4.08,3.41,7.11,3.41,1.74,0,3.09-.36,4.06-1.08.96-.72,1.45-1.69,1.45-2.89s-.5-2.09-1.49-2.81c-.96-.7-2.17-1.27-3.61-1.73-1.39-.45-2.8-.94-4.22-1.44-1.39-.54-2.6-1.34-3.61-2.41-.99-1.07-1.49-2.44-1.49-4.1,0-2.06.83-3.74,2.49-5.02,1.66-1.29,3.83-1.93,6.51-1.93,1.98,0,3.74.37,5.26,1.12,1.58.75,2.78,1.71,3.61,2.89l-2.65,2.53Z"/>
  <path class="st0" d="M501.7,270.71l-4.82,12.05h9.68l-4.86-12.05ZM507.85,286.01h-12.29l-2.65,6.59h-3.82l10.6-25.74h4.26l10.6,25.74h-4.06l-2.65-6.59Z"/>
  <path class="st0" d="M539.08,270.71l-4.82,12.05h9.68l-4.86-12.05ZM545.22,286.01h-12.29l-2.65,6.59h-3.81l10.6-25.74h4.26l10.6,25.74h-4.06l-2.65-6.59Z"/>
  <polygon class="st0" points="572.64 270.27 572.64 292.6 569.03 292.6 569.03 270.27 560.87 270.27 560.87 266.86 580.83 266.86 580.83 270.27 572.64 270.27"/>
  <polygon class="st0" points="657.17 270.27 657.17 292.6 653.55 292.6 653.55 270.27 645.4 270.27 645.4 266.86 665.36 266.86 665.36 270.27 657.17 270.27"/>
  <path class="st0" d="M679.44,266.9h3.66v15.7c0,2.06.59,3.75,1.77,5.06,1.18,1.29,2.73,1.93,4.66,1.93s3.55-.64,4.7-1.93c1.18-1.31,1.77-3,1.77-5.06v-15.7h3.65v15.7c0,3.16-.92,5.7-2.77,7.63-1.85,1.93-4.28,2.89-7.31,2.89s-5.42-.96-7.27-2.89c-1.85-1.93-2.77-4.48-2.77-7.67l-.08-15.66Z"/>
  <path class="st0" d="M720.43,270.07v9.04h5.7c1.61,0,2.88-.41,3.82-1.24.96-.86,1.45-1.95,1.45-3.29s-.48-2.45-1.45-3.25c-.96-.8-2.23-1.2-3.82-1.2l-5.7-.04ZM716.82,266.86h9c2.86,0,5.15.7,6.87,2.09,1.71,1.39,2.57,3.28,2.57,5.66,0,1.82-.52,3.37-1.57,4.66-1.04,1.29-2.5,2.18-4.38,2.69l6.43,10.64h-4.18l-6.02-10.2h-5.02v10.2h-3.61l-.08-25.74Z"/>
  <path class="st0" d="M753.64,263.52c-.62,0-1.14-.21-1.57-.64-.43-.43-.64-.95-.64-1.57s.21-1.14.64-1.57c.43-.43.95-.64,1.57-.64s1.14.21,1.57.64c.45.45.68.98.68,1.57s-.21,1.14-.64,1.57c-.43.43-.95.64-1.57.64h-.04ZM751.87,266.86h3.61v25.74h-3.61v-25.74Z"/>
  <polygon class="st0" points="785.63 270.27 771.29 270.27 771.29 266.86 790.29 266.86 790.29 270.27 775.75 289.19 790.45 289.19 790.45 292.6 771.09 292.6 771.09 289.19 785.63 270.27"/>
  <polygon class="st0" points="809.71 272.64 809.71 292.6 806.1 292.6 806.1 266.86 810.28 266.86 819.55 281.6 828.79 266.86 832.49 266.86 832.49 292.6 828.87 292.6 828.87 272.64 819.31 287.54 809.71 272.64"/>
  <polygon class="st0" points="903.12 266.86 906.73 266.86 906.73 289.19 920.07 289.19 920.07 292.6 903.12 292.6 903.12 266.86"/>
  <polygon class="st0" points="939.77 270.27 939.77 292.6 936.16 292.6 936.16 270.27 928.01 270.27 928.01 266.86 947.97 266.86 947.97 270.27 939.77 270.27"/>
  <path class="st0" d="M966.15,270.31v18.88h4.22c3.21,0,5.77-.86,7.67-2.57,1.93-1.74,2.89-4.03,2.89-6.87s-.96-5.15-2.89-6.87c-1.9-1.71-4.46-2.57-7.67-2.57h-4.22ZM962.41,266.9h7.87c4.28,0,7.78,1.19,10.48,3.57,2.7,2.38,4.05,5.48,4.05,9.28s-1.31,6.89-3.94,9.28c-2.62,2.38-6.02,3.57-10.2,3.57h-8.23l-.04-25.7Z"/>
  <path class="st0" d="M999.91,292.96c-.67,0-1.24-.24-1.73-.72-.48-.48-.72-1.06-.72-1.73s.24-1.28.72-1.77c.48-.48,1.06-.72,1.73-.72s1.29.24,1.77.72c.48.48.72,1.07.72,1.77s-.24,1.25-.72,1.73c-.48.48-1.07.72-1.77.72"/>
  <path class="st0" d="M1084.96,272.88c-.59-.86-1.47-1.58-2.65-2.17-1.15-.59-2.4-.88-3.74-.88-1.5,0-2.72.32-3.65.96-.91.64-1.37,1.49-1.37,2.53,0,.88.36,1.63,1.09,2.25.75.64,1.65,1.11,2.69,1.41.86.24,2.02.63,3.49,1.17,1.26.43,2.42.91,3.49,1.44,1.07.51,1.97,1.29,2.69,2.33.72,1.04,1.08,2.26,1.08,3.65,0,2.06-.72,3.77-2.17,5.14-1.47,1.39-3.41,2.18-5.82,2.37l-2.69,6.83-2.97-1.21,3.05-5.58c-3.86-.29-6.71-1.74-8.55-4.34l2.61-2.45c1.71,2.28,4.08,3.41,7.11,3.41,1.74,0,3.09-.36,4.06-1.08.96-.72,1.45-1.69,1.45-2.89s-.5-2.09-1.49-2.81c-.96-.7-2.17-1.27-3.61-1.73-1.39-.45-2.8-.94-4.22-1.44-1.39-.54-2.6-1.34-3.61-2.41-.99-1.07-1.49-2.44-1.49-4.1,0-2.06.83-3.74,2.49-5.02,1.66-1.29,3.83-1.93,6.51-1.93,1.98,0,3.74.37,5.26,1.12,1.58.75,2.78,1.71,3.61,2.89l-2.65,2.53Z"/>
  <polygon class="st0" points="1112.42 270.27 1112.42 292.6 1108.8 292.6 1108.8 270.27 1100.65 270.27 1100.65 266.86 1120.61 266.86 1120.61 270.27 1112.42 270.27"/>
  <path class="st0" d="M1136.86,263.52c-.62,0-1.14-.21-1.57-.64-.43-.43-.64-.95-.64-1.57s.21-1.14.64-1.57c.43-.43.95-.64,1.57-.64s1.14.21,1.57.64c.45.45.68.98.68,1.57s-.21,1.14-.64,1.57c-.43.43-.95.64-1.57.64h-.04ZM1135.1,266.86h3.61v25.74h-3.61v-25.74Z"/>
  <path class="st0" d="M1156.45,292.96c-.67,0-1.24-.24-1.73-.72-.48-.48-.72-1.06-.72-1.73s.24-1.28.72-1.77c.48-.48,1.06-.72,1.73-.72s1.29.24,1.77.72c.48.48.72,1.07.72,1.77s-.24,1.25-.72,1.73c-.48.48-1.07.72-1.77.72"/>
  <path class="st0" d="M363.53,122.3v-.1c0-.29-.02-.52-.04-.69-.1-.62-.21-1.68-.34-3.18-.05-.29-.15-.58-.3-.87-.39-.75-.96-1.48-1.72-2.2.03-.5-.05-.85-.23-1.05-.37-.39-.79-.48-1.26-.29-.18.05-.36.21-.53.48-.09.16-.16.41-.21.78-.02.1-.07.2-.17.3-.09.1-.21.21-.36.32-.82.58-1.29.93-1.42,1.07-.19.13-.43.5-.72,1.13l-.95,2.17c-.07.14-.3.9-.67,2.26l-.45,1.19c-.25.9-.37,1.78-.38,2.63.03,1.29.17,2.01.42,2.16.02.02.08,0,.18-.07.43-.43.76-.71,1.01-.84.33-.19.67-.32,1.03-.38.39-.03.72,0,.99.11.67.23,1.05.43,1.13.59.09.17.07.3-.06.38-.6.09-.93.18-.99.26-.73.37-1.38.75-1.96,1.13-.38.35-.59.64-.61.87.03.5.11.85.24,1.04.26.35.59.62.99.83.46.21.95.32,1.46.32.29.02.68-.06,1.17-.24.52-.21,1.03-.58,1.53-1.13.24-.25.45-.59.64-1.02.76-.91,1.16-1.4,1.2-1.5.07-.08.2-.31.4-.71.33-.66.61-1.54.84-2.62.03-.15.05-.36.06-.62v-1.2c.04-.67.06-1.11.05-1.3M359.59,115.44h-.02s-.05-.03-.06-.03c-.02-.01-.04-.02-.05-.03h0s.02.01.03.02c0,0,0,0,0,0h0s0,0,0,0c0,0,0,0,0-.01,0,0,0-.01,0-.03,0,0,0,0,0,0h0s0,0,0,0h0s0,0,0,0h0s0,.01,0,.01c0,0,.01.01.02.02.01.02.03.04.05.06h0Z"/>
  <path class="st0" d="M483.77,132.8v-.1c-.13-2.73-.2-4.06-.23-4.02-.06-.69-.2-1.37-.42-2.05-.15-.4-.25-.63-.3-.69l-.53-.91c-.12-.14-.26-.27-.42-.38l-1.25-.68c-.09-.04-.13-.13-.12-.26.02.04-.12.16-.43.37-1.08.53-1.79.94-2.14,1.22l-2,1.93c-.25.25-.48.51-.68.76-.16.19-.55.76-1.18,1.72-.16.2-.24.25-.25.17-.08.08-.16.17-.22.26l-.82,1.42c-.36.68-.54,1.43-.52,2.24.08,1.8.18,2.99.3,3.58.03.18.09.36.17.54.02.1.17.35.45.76.06.1.24.29.54.55.12.09.22.15.31.17.09.03.17.02.22-.03.48.17,1.08.3,1.77.42.58.06.93.08,1.03.06,1.13-.16,1.98-.39,2.54-.69.65-.33,1.2-.75,1.66-1.25.62-.61,1.25-1.58,1.89-2.92l.21-.47.3-1.04c.07-.23.1-.45.09-.67"/>
</svg>